<svg width="800" height="960" viewBox="0 0 800 960" fill="none" xmlns="http://www.w3.org/2000/svg">
  <circle cx="400" cy="270" r="128" fill="#F1F5F9"/>
  <path d="M328 265C328 214.742 368.742 174 419 174H431C481.258 174 522 214.742 522 265V314H328V265Z" fill="#111827"/>
  <path d="M399 390C465.826 390 520 335.826 520 269C520 202.174 465.826 148 399 148C332.174 148 278 202.174 278 269C278 335.826 332.174 390 399 390Z" fill="#F2D1BF"/>
  <path d="M281 283C281 201.814 346.814 136 428 136H440C521.186 136 587 201.814 587 283V293C552 288.667 521.667 274.333 496 250C464.667 277.333 393 308.333 281 343V283Z" fill="#0F172A"/>
  <path d="M320 414C320 378.654 348.654 350 384 350H436C471.346 350 500 378.654 500 414V446C500 481.346 471.346 510 436 510H384C348.654 510 320 481.346 320 446V414Z" fill="#F2D1BF"/>
  <path d="M231 863C231 699.939 363.166 567.773 526.227 567.773H546C623.32 567.773 686 630.453 686 707.773V863H231Z" fill="#E2E8F0"/>
  <path d="M120 863C120 664.177 281.177 503 480 503H486C684.823 503 846 664.177 846 863H120Z" fill="#111827"/>
  <path d="M279 515L395 627L518 515L477 484H324L279 515Z" fill="#FFFFFF"/>
  <path d="M395 627L360 863H445L395 627Z" fill="#CBD5E1"/>
</svg>
